<?xml version="1.0" encoding="utf-8"?>
<!-- Generator: Adobe Illustrator 16.0.0, SVG Export Plug-In . SVG Version: 6.00 Build 0)  -->
<!DOCTYPE svg PUBLIC "-//W3C//DTD SVG 1.0//EN" "http://www.w3.org/TR/2001/REC-SVG-20010904/DTD/svg10.dtd">
<svg version="1.0" id="Layer_1" xmlns="http://www.w3.org/2000/svg" xmlns:xlink="http://www.w3.org/1999/xlink" x="0px" y="0px"
	 width="512px" height="512.001px" viewBox="0 0 512 512.001" enable-background="new 0 0 512 512.001" xml:space="preserve">
<rect x="0" y="0" fill-rule="evenodd" clip-rule="evenodd" width="512" height="512"/>
<g>
	<path fill-rule="evenodd" clip-rule="evenodd" fill="#FFFFFF" d="M71.551,385.128c-5.662-9.48-10.672-17.869-16.208-27.133
		c11.616-6.986,22.896-13.186,33.421-20.432c3.305-2.298,6.548-7.428,6.59-11.339c0.685-46.375,0.951-92.735,0.68-139.107
		c-0.025-4.156-3.547-9.662-7.096-12.167c-10.456-7.384-21.776-13.563-33.645-20.766c5.61-9.314,10.771-17.902,16.302-27.078
		c12.391,7.382,23.887,14.778,35.942,21.058c3.47,1.814,9.547,2.14,12.795,0.299c37.901-21.635,75.591-43.622,112.985-66.083
		c3.558-2.144,6.509-8.034,6.821-12.393c0.917-12.386,0.328-24.898,0.328-37.987c10.703,0,20.349,0,31.057,0
		c0,12.706,0.319,24.8-0.107,36.861c-0.249,6.382,1.673,10.334,7.45,13.687c37.734,21.886,75.201,44.268,112.982,66.046
		c3.05,1.756,8.744,1.741,11.852,0.085c12.35-6.549,24.166-14.1,36.698-21.581c5.461,9.085,10.5,17.452,16.306,27.077
		c-11.271,6.774-22.529,12.879-32.945,20.167c-3.566,2.501-7.021,7.998-7.09,12.178c-0.76,46.367-0.951,92.75-0.752,139.121
		c0.02,3.857,3.324,9.002,6.631,11.318c10.559,7.294,21.849,13.54,34.018,20.859c-5.355,9.122-10.449,17.804-16.011,27.304
		c-12.118-7.229-23.929-13.908-35.402-21.187c-5.004-3.163-8.662-3.649-14.209-0.354c-37.17,22.151-74.738,43.598-111.776,65.903
		c-3.801,2.306-6.888,8.597-7.283,13.266c-1.033,12.087-0.36,24.289-0.36,37.249c-10.219,0-19.867,0-31.055,0
		c0-12.062-0.336-24.115,0.126-36.103c0.279-6.837-1.751-10.999-7.914-14.575c-37.45-21.664-74.567-43.874-112.066-65.424
		c-3.295-1.861-9.371-1.813-12.806-0.049C95.753,370.107,84.268,377.522,71.551,385.128z M383.808,198.413
		c-9.91,5.731-19.152,10.662-27.849,16.441c-2.233,1.476-3.718,5.621-3.798,8.597c-0.527,21.59-0.681,43.219-0.655,64.801
		c0.003,2.667,1.04,6.511,2.977,7.786c8.926,6.004,18.371,11.268,29.325,17.793C383.808,274.226,383.808,237.072,383.808,198.413z
		 M128.139,314.03c10.044-5.886,19.246-10.987,27.999-16.69c2.038-1.341,3.621-4.933,3.684-7.521
		c0.479-22.384,0.688-44.78,0.677-67.17c-0.002-2.256-1.298-5.488-3.048-6.635c-9.016-5.854-18.375-11.178-29.312-17.693
		C128.139,237.871,128.139,274.896,128.139,314.03z M366.003,170.274c-31.173-18.286-62.101-36.421-94.48-55.42
		c0,10.556,0.452,18.533-0.116,26.41c-0.525,6.992,1.938,11.109,8.104,14.437c10.656,5.716,20.85,12.298,31.194,18.557
		c26.855,16.182,26.852,16.192,52.945-1.425C364.23,172.455,364.616,171.805,366.003,170.274z M240.468,397.424
		c0-10.969,0.691-19.646-0.304-28.153c-0.464-4.112-3.096-9.36-6.423-11.5c-17.166-11.021-34.774-21.391-52.441-31.595
		c-2.466-1.439-6.777-2.212-9.04-1.044c-8.871,4.593-17.247,10.117-27.261,16.146C177.138,360.183,207.672,378.137,240.468,397.424z
		 M239.271,115.938c-31.638,18.466-62.351,36.39-93.703,54.665c28.431,19.281,28.434,19.281,56.116,3.047
		c4.557-2.657,9.117-5.373,13.678-8.051c26.666-15.604,26.667-15.604,24.8-46.496C240.139,118.736,239.966,118.364,239.271,115.938z
		 M271.534,396.941c32.907-19.186,63.456-37.037,95.364-55.634c-9.831-5.817-18.012-11.055-26.655-15.466
		c-2.335-1.202-6.593-0.946-8.931,0.383c-18.065,10.301-35.954,20.889-53.651,31.804c-2.702,1.683-5.595,5.421-5.821,8.446
		C271.092,375.758,271.534,385.183,271.534,396.941z M206.53,208.002c11.807,6.877,22.021,12.822,33.332,19.398
		c0-13.878,0-25.738,0-39.485C228.434,194.813,218.278,200.93,206.53,208.002z M272.248,324.252
		c11.615-7.071,21.833-13.272,33.05-20.071c-11.339-6.667-21.536-12.649-33.05-19.419
		C272.248,298.326,272.248,310.185,272.248,324.252z M272.088,227.688c11.712-7.104,21.566-13.083,32.65-19.799
		c-11.341-6.935-21.382-13.085-32.65-20.014C272.088,201.842,272.088,213.676,272.088,227.688z M239.476,324.098
		c0-13.901,0-25.916,0-39.32c-11.223,6.811-21.094,12.767-32.163,19.48C218.329,311.05,228.186,317.133,239.476,324.098z
		 M192.438,236.462c0,13.819,0,25.798,0,39.023c11.23-6.71,21.309-12.74,32.562-19.495
		C213.675,249.203,203.826,243.298,192.438,236.462z M319.532,236.704c-11.162,6.677-21.264,12.709-32.492,19.429
		c11.214,6.776,21.083,12.746,32.492,19.621C319.532,262.149,319.532,250.332,319.532,236.704z"/>
</g>
</svg>
